# xmcd
#
# Track frame offsets: 
#        150
#        19435
#        44224
#        81152
#        97187
#        119641
#        137436
#        156166
#        174910
#        184244
#        201960
#        223305
#        246523
#        264045
#        281655
#        296195
#
# Disc length: 4227 seconds
#
# Revision: 0
# Processed by: cddbd v1.5.2PL0 Copyright (c) Steve Scherf et al.
# Submitted via: ExactAudioCopy v0.95b4
#
DISCID=04108110
DTITLE=Amazing Rhythm Aces - Bremen 2000
DYEAR=1900
DGENRE=
TTITLE0=Out Of The Blue
TTITLE1=One Love
TTITLE2=Love's On The Way
TTITLE3=Della's Long Brown Hair
TTITLE4=The Rock
TTITLE5=Lipstick Traces
TTITLE6=Dancin' With The One You Love
TTITLE7=Guardian Angel
TTITLE8=?
TTITLE9=My Tears Still Flow
TTITLE10=Anything You Want
TTITLE11=Waitin' On Sundown
TTITLE12=?
TTITLE13=Amazing Grace (Used To Be Her Favorite Song)
TTITLE14=Rednecks UnPlugged
TTITLE15=The Blue Room
EXTD=
EXTT0=
EXTT1=
EXTT2=
EXTT3=
EXTT4=
EXTT5=
EXTT6=
EXTT7=
EXTT8=
EXTT9=
EXTT10=
EXTT11=
EXTT12=
EXTT13=
EXTT14=
EXTT15=
PLAYORDER=
